<svg xmlns="http://www.w3.org/2000/svg" width="250" height="65.289" viewBox="0 0 250 65.289">
  <g id="Group_965" data-name="Group 965" transform="translate(-385 400)">
    <rect id="Rectangle_9" data-name="Rectangle 9" width="250" height="1.795" transform="translate(385 -378.57)" fill="#262262"/>
    <path id="Path_15" data-name="Path 15" d="M541.584,512.988l-7.743,13.68h-2.063l7.743-13.68Z" transform="translate(-128.894 -887.156)" fill="#262262"/>
    <path id="Path_16" data-name="Path 16" d="M601.677,428.486l-10.656-18.824h-1.748l-10.656,18.824h2.063l9.467-16.724,9.467,16.724Z" transform="translate(-164.023 -809.662)" fill="#00c0f3"/>
    <path id="Path_17" data-name="Path 17" d="M1166.37,512.988l12.11,13.68h2.4l-12.111-13.68Z" transform="translate(-604.837 -887.156)" fill="#262262"/>
    <path id="Path_18" data-name="Path 18" d="M715.2,409.662v1.8h35.63l-17.223,17.029h2.553l17.22-17.029v-1.8Z" transform="translate(-266.463 -809.662)" fill="#00c0f3"/>
    <path id="Path_19" data-name="Path 19" d="M689.509,524.872l12.019-11.884h-2.553l-11.823,11.69-6.617-11.69h-2.063l7.743,13.68H726.79v-1.8Z" transform="translate(-238.914 -887.156)" fill="#262262"/>
    <path id="Path_20" data-name="Path 20" d="M1278.96,409.662h-35.773v18.824h1.8V411.457h33.978Z" transform="translate(-662.45 -809.662)" fill="#00c0f3"/>
    <path id="Path_21" data-name="Path 21" d="M1244.983,524.872V512.988h-1.8v13.68h36.406v-1.8Z" transform="translate(-662.45 -887.156)" fill="#262262"/>
    <rect id="Rectangle_10" data-name="Rectangle 10" width="13.68" height="1.795" transform="translate(535.027 -360.489) rotate(-90)" fill="#262262"/>
    <rect id="Rectangle_11" data-name="Rectangle 11" width="18.824" height="1.795" transform="translate(490.637 -381.176) rotate(-90)" fill="#00c0f3"/>
    <rect id="Rectangle_12" data-name="Rectangle 12" width="18.824" height="1.795" transform="translate(528.449 -381.176) rotate(-90)" fill="#00c0f3"/>
    <path id="Path_22" data-name="Path 22" d="M921.6,513c-3.01,12.506-15.491,12.783-17.222,12.783h-.4c-1.73,0-14.212-.277-17.221-12.783h-1.911s1.938,14.491,19.332,14.491S923.509,513,923.509,513Z" transform="translate(-393.695 -887.168)" fill="#262262"/>
    <path id="Path_23" data-name="Path 23" d="M1099.88,420.778a10.306,10.306,0,0,0-2.577-6.787,12.451,12.451,0,0,0-4.121-2.877,16.842,16.842,0,0,0-3.961-1.2,25.8,25.8,0,0,0-3.321-.248h-25.551v18.824h1.795V411.457H1085.9a19.633,19.633,0,0,1,3.343.291,13.91,13.91,0,0,1,5.192,2.11,8.439,8.439,0,0,1,3.515,5.89,10.832,10.832,0,0,1-.349,4.618,9.1,9.1,0,0,1-2.806,4.12h2.566a9.418,9.418,0,0,0,1.3-1.921A11,11,0,0,0,1099.88,420.778Z" transform="translate(-525.322 -809.662)" fill="#00c0f3"/>
    <g id="Group_5" data-name="Group 5" transform="translate(476.924 -342.594)">
      <path id="Path_24" data-name="Path 24" d="M827.936,647.492v-7.56h5.982c1.663,0,2.754.507,2.754,1.922,0,1.026-.6,1.447-1.479,1.674,1.166.184,2.019.626,2.019,1.879,0,1.22-.777,2.084-2.721,2.084Zm.864-6.75v2.451h4.73c1.382,0,2.333-.13,2.333-1.2,0-.918-.691-1.252-1.944-1.252Zm0,3.261v2.678h5.691c1.361,0,1.912-.54,1.912-1.393,0-1.112-.972-1.285-2.344-1.285Z" transform="translate(-827.936 -639.77)" fill="#262262"/>
      <path id="Path_25" data-name="Path 25" d="M886.863,647.492v-7.56h8.2v.81h-7.332v2.451h6.685V644h-6.685v2.678h7.548v.81Z" transform="translate(-872.131 -639.77)" fill="#262262"/>
      <path id="Path_26" data-name="Path 26" d="M949.829,647.492h-.993l-1.21-1.869H941.5l-1.2,1.869h-.994l4.762-7.56h.994Zm-7.473-3.24-.389.561h5.194l-.378-.561-2.214-3.564Z" transform="translate(-911.467 -639.77)" fill="#262262"/>
      <path id="Path_27" data-name="Path 27" d="M1007.482,646.563a11.777,11.777,0,0,1-3.845.605c-3.931,0-5.573-1.7-5.573-3.942s1.642-3.942,5.573-3.942a11.786,11.786,0,0,1,3.845.6l-.205.778a12.056,12.056,0,0,0-3.639-.572c-3.359,0-4.7,1.328-4.7,3.132s1.339,3.132,4.7,3.132a12.07,12.07,0,0,0,3.639-.572Z" transform="translate(-955.533 -639.284)" fill="#262262"/>
      <path id="Path_28" data-name="Path 28" d="M1065.114,647.492V644h-7.127v3.488h-.864v-7.56h.864v3.261h7.127v-3.261h.864v7.56Z" transform="translate(-999.826 -639.77)" fill="#262262"/>
    </g>
  </g>
</svg>
